<svg id="Layer_1" enable-background="new 0 0 512 512" height="512" viewBox="0 0 512 512" width="512" xmlns="http://www.w3.org/2000/svg"><path d="m340.244 512c-68.441 0-132.787-26.626-181.185-74.973-48.402-48.353-75.059-112.642-75.059-181.026 0-68.271 26.709-132.538 75.209-180.964 48.464-48.391 112.753-75.037 181.035-75.037h.123c15.72.007 31.471 1.452 46.815 4.294 19.103 3.539 34.087 17.425 39.104 36.239 5.017 18.813-1.063 38.315-15.865 50.895-48.429 41.152-76.204 101.136-76.204 164.572 0 63.437 27.775 123.421 76.205 164.574 14.792 12.57 20.866 32.028 15.849 50.78-5.063 18.926-20.2 32.885-39.503 36.428-15.252 2.799-30.904 4.218-46.524 4.218zm.001-472c-57.613 0-111.859 22.491-152.773 63.342-40.931 40.869-63.472 95.084-63.472 152.659 0 119.102 97.007 215.999 216.244 215.999 13.204 0 26.428-1.198 39.302-3.561 5.787-1.063 7.581-5.545 8.083-7.423.596-2.227.984-6.482-3.109-9.96-57.389-48.767-90.303-119.862-90.303-195.056 0-75.193 32.913-146.287 90.3-195.054 4.277-3.635 3.605-8.279 3.118-10.107-.488-1.829-2.218-6.191-7.74-7.214-12.953-2.399-26.258-3.619-39.547-3.625-.032 0-.072 0-.103 0zm-246.245-12c13.807 0 25 11.193 25 25s-11.193 25-25 25-25-11.193-25-25 11.193-25 25-25zm368 311c0 13.807 11.193 25 25 25s25-11.193 25-25-11.193-25-25-25-25 11.193-25 25zm-58-135c0 13.807 11.193 25 25 25s25-11.193 25-25-11.193-25-25-25-25 11.193-25 25zm-404-21c0 13.807 11.193 25 25 25s25-11.193 25-25-11.193-25-25-25-25 11.193-25 25zm66 304c0 13.807 11.193 25 25 25s25-11.193 25-25-11.193-25-25-25-25 11.193-25 25z"/></svg>