<svg id="Layer_1" enable-background="new 0 0 512 512" height="512" viewBox="0 0 512 512" width="512" xmlns="http://www.w3.org/2000/svg"><path d="m492 275.99h-20c-11.046 0-20-8.954-20-20s8.954-20 20-20h20c11.046 0 20 8.954 20 20s-8.954 20-20 20zm-432-20c0-11.046-8.954-20-20-20h-20c-11.046 0-20 8.954-20 20s8.954 20 20 20h20c11.046 0 20-8.954 20-20zm97.988-169.734c9.565-5.523 12.842-17.755 7.319-27.321l-10.001-17.32c-5.524-9.566-17.756-12.842-27.321-7.319s-12.842 17.755-7.319 27.321l10.001 17.32c3.705 6.416 10.427 10.002 17.338 10.002 3.394 0 6.833-.864 9.983-2.683zm320.952 295.339c5.419-9.625 2.011-21.82-7.614-27.24l-17.427-9.813c-9.624-5.417-21.82-2.01-27.24 7.614-5.419 9.625-2.011 21.82 7.614 27.24l17.427 9.813c3.102 1.747 6.471 2.576 9.794 2.576 6.988.001 13.773-3.667 17.446-10.19zm-393.851-221.778c5.42-9.625 2.011-21.821-7.613-27.24l-17.427-9.813c-9.625-5.42-21.821-2.01-27.24 7.613-5.42 9.625-2.011 21.821 7.613 27.24l17.427 9.813c3.103 1.747 6.472 2.577 9.795 2.577 6.988 0 13.773-3.668 17.445-10.19zm187.911-119.818v-19.999c0-11.046-8.954-20-20-20s-20 8.954-20 20v19.999c0 11.046 8.954 20 20 20s20-8.954 20-20zm-213.772 347.996 17.487-9.705c9.658-5.36 13.143-17.534 7.782-27.192-5.36-9.659-17.535-13.143-27.192-7.782l-17.487 9.705c-9.658 5.36-13.143 17.534-7.782 27.192 3.654 6.584 10.474 10.298 17.505 10.298 3.283 0 6.613-.81 9.687-2.516zm330.432 86.352c9.42-5.767 12.382-18.079 6.615-27.5l-10.442-17.058c-5.767-9.419-18.079-12.382-27.5-6.615-9.42 5.767-12.382 18.079-6.615 27.5l10.442 17.058c3.772 6.162 10.345 9.561 17.077 9.561 3.559-.001 7.165-.951 10.423-2.946zm-234.354-3.962 10.001-17.32c5.523-9.565 2.247-21.797-7.319-27.321s-21.798-2.247-27.321 7.319l-10.001 17.32c-5.523 9.565-2.247 21.797 7.319 27.321 3.15 1.819 6.588 2.684 9.982 2.684 6.912-.001 13.635-3.588 17.339-10.003zm117.694 21.615v-19.999c0-11.046-8.954-20-20-20s-20 8.954-20 20v19.999c0 11.046 8.954 20 20 20s20-8.954 20-20zm139-235.99v-.02c0-86.019-69.981-156-156-156s-156 69.981-156 156.02c0 86.019 69.981 156 156 156s156-69.982 156-156zm-40-.015v.015c0 63.963-52.038 116-116 116s-116-52.037-116-116.02c0-63.963 52.038-116 116-116s116 52.037 116 116.005zm-3.244-164.224c-3.561 0-7.164-.95-10.423-2.945-9.42-5.767-12.382-18.079-6.615-27.5l10.442-17.058c5.768-9.42 18.079-12.383 27.5-6.615 9.42 5.767 12.382 18.079 6.615 27.5l-10.442 17.057c-3.772 6.162-10.345 9.561-17.077 9.561zm85.515 76.497 17.468-9.74c9.647-5.379 13.107-17.561 7.729-27.208s-17.56-13.106-27.208-7.729l-17.468 9.74c-9.647 5.379-13.107 17.561-7.729 27.208 3.66 6.564 10.469 10.264 17.486 10.264 3.297 0 6.639-.816 9.722-2.535z"/></svg>