<svg id="Layer_1" enable-background="new 0 0 512 512" height="512" viewBox="0 0 512 512" width="512" xmlns="http://www.w3.org/2000/svg"><path d="m349.249 512h-229.526c-66.015 0-119.723-53.708-119.723-119.723 0-61.699 46.514-112.692 106.178-119.466 10.364-49.35 54.087-85.765 106.673-85.765 26.055 0 51.29 9.403 71.055 26.477 14.861 12.838 25.938 29.376 32.17 47.722 47.91 3.14 85.924 43.152 85.924 91.885 0 5.912-.607 11.842-1.814 17.745 18.079 14.968 28.814 37.291 28.814 61.374 0 43.975-35.776 79.751-79.751 79.751zm-229.526-199.954c-43.96 0-79.723 35.992-79.723 80.231 0 43.959 35.763 79.723 79.723 79.723h229.526c21.919 0 39.751-17.832 39.751-39.751 0-14.84-8.187-28.343-21.365-35.24-9.028-4.725-13.061-15.483-9.362-24.979 2.473-6.351 3.728-12.709 3.728-18.9 0-28.719-23.327-52.084-52-52.084-.795 0-5.912.735-6.823.848-10.678 1.324-20.493-6.039-22.207-16.663-5.35-33.17-34.635-58.185-68.119-58.185-37.362 0-67.652 28.903-68.958 65.801-.188 5.321-2.49 10.347-6.396 13.965s-9.09 5.532-14.413 5.311c-1.257-.051-2.356-.077-3.362-.077zm340.223 7.96c31.135-11.53 52.054-41.592 52.054-74.804 0-24.083-10.735-46.405-28.814-61.374 1.207-5.903 1.814-11.833 1.814-17.745 0-48.733-38.014-88.745-85.923-91.885-6.232-18.346-17.309-34.884-32.17-47.722-19.766-17.073-45-26.476-71.055-26.476-52.586 0-96.308 36.408-106.671 85.757-21.168 2.385-41.137 10.368-58.393 23.441-20.124 15.246-35.246 36.9-42.581 60.973-3.219 10.566 2.737 21.742 13.303 24.961 10.57 3.22 21.742-2.737 24.961-13.303 10.194-33.46 41.55-56.829 76.251-56.829 1.006 0 2.106.025 3.362.077 5.323.226 10.507-1.692 14.413-5.31s6.208-8.645 6.396-13.965c1.307-36.899 31.597-65.802 68.959-65.802 33.484 0 62.769 25.014 68.119 58.185 1.713 10.625 11.523 17.99 22.207 16.663.912-.113 6.028-.848 6.823-.848 28.673 0 52 23.365 52 52.083 0 6.189-1.254 12.549-3.728 18.901-3.698 9.496.334 20.252 9.363 24.978 13.179 6.897 21.365 20.401 21.365 35.24 0 16.56-10.427 31.547-25.946 37.294-10.358 3.836-15.646 15.343-11.809 25.701 2.988 8.068 10.629 13.06 18.757 13.06 2.307 0 4.653-.403 6.943-1.251zm-89.946-95.022c-11.046 0-20-8.954-20-20 0-13.262-10.766-24.051-24-24.051-11.046 0-20-8.954-20-20s8.954-20 20-20c35.29 0 64 28.733 64 64.051 0 11.046-8.954 20-20 20zm-70 179.016c0-35.318-28.71-64.051-64-64.051-11.046 0-20 8.954-20 20s8.954 20 20 20c13.234 0 24 10.79 24 24.051 0 11.046 8.954 20 20 20s20-8.954 20-20z"/></svg>