<svg id="Layer_1" enable-background="new 0 0 512.025 512.025" height="512" viewBox="0 0 512.025 512.025" width="512" xmlns="http://www.w3.org/2000/svg"><path d="m432.261 512.025h-229.526c-66.015 0-119.722-53.707-119.722-119.723 0-61.699 46.514-112.692 106.178-119.467 10.364-49.349 54.087-85.764 106.673-85.764 26.055 0 51.29 9.403 71.055 26.477 14.861 12.838 25.938 29.376 32.17 47.722 47.909 3.14 85.923 43.152 85.923 91.885 0 5.912-.607 11.841-1.814 17.745 18.079 14.968 28.814 37.291 28.814 61.374 0 43.975-35.775 79.751-79.751 79.751zm-229.526-199.954c-43.959 0-79.722 35.991-79.722 80.231 0 43.959 35.763 79.723 79.722 79.723h229.527c21.919 0 39.751-17.832 39.751-39.751 0-14.84-8.187-28.343-21.365-35.24-9.028-4.725-13.061-15.482-9.363-24.978 2.474-6.352 3.728-12.711 3.728-18.901 0-28.719-23.327-52.084-52-52.084-.795 0-5.912.735-6.823.848-10.677 1.324-20.493-6.039-22.207-16.663-5.35-33.17-34.635-58.185-68.119-58.185-37.362 0-67.652 28.903-68.958 65.801-.188 5.321-2.49 10.347-6.396 13.965s-9.092 5.532-14.413 5.311c-1.256-.051-2.356-.077-3.362-.077zm-141.866 13.751c9.277-5.996 11.937-18.377 5.94-27.653-16.529-25.573-26.797-64.1-26.797-100.6 0-77.949 35.635-130.836 105.915-157.193.766-.287 2.8-1.049 4.643 1.292 1.829 2.324.62 4.106.164 4.778-20.032 29.529-30.62 64.484-30.62 101.138 0 28.487 6.235 53.844 18.533 75.365 5.48 9.59 17.696 12.922 27.288 7.442 9.59-5.48 12.922-17.697 7.442-27.288-8.8-15.401-13.263-34.08-13.263-55.572 0-28.562 8.203-55.752 23.723-78.629 10.986-16.196 10.267-36.596-1.834-51.971-12.109-15.389-31.784-20.886-50.122-14.009-37.513 14.069-67.69 35.084-89.691 62.462-27.987 34.826-42.178 79.3-42.178 132.237 0 44.389 12.413 90.094 33.203 122.26 3.827 5.921 10.254 9.146 16.815 9.146 3.72 0 7.483-1.036 10.839-3.205zm322.143 78.203c0-35.318-28.71-64.051-64-64.051-11.046 0-20 8.954-20 20s8.954 20 20 20c13.234 0 24 10.79 24 24.051 0 11.046 8.954 20 20 20s20-8.954 20-20z"/></svg>