<svg id="Layer_1" enable-background="new 0 0 512 512" height="512" viewBox="0 0 512 512" width="512" xmlns="http://www.w3.org/2000/svg"><path d="m349.249 512h-229.526c-66.015 0-119.723-53.708-119.723-119.723 0-61.699 46.514-112.692 106.178-119.466 10.364-49.35 54.087-85.765 106.673-85.765 26.055 0 51.29 9.403 71.055 26.477 14.861 12.838 25.938 29.376 32.17 47.722 47.91 3.14 85.924 43.152 85.924 91.885 0 5.912-.607 11.842-1.814 17.745 18.079 14.968 28.814 37.291 28.814 61.374 0 43.975-35.776 79.751-79.751 79.751zm-229.526-199.954c-43.96 0-79.723 35.992-79.723 80.231 0 43.959 35.763 79.723 79.723 79.723h229.526c21.919 0 39.751-17.832 39.751-39.751 0-14.84-8.187-28.343-21.365-35.24-9.028-4.725-13.061-15.483-9.362-24.979 2.473-6.351 3.728-12.709 3.728-18.9 0-28.719-23.327-52.084-52-52.084-.795 0-5.912.735-6.823.848-10.678 1.324-20.493-6.039-22.207-16.663-5.35-33.17-34.635-58.185-68.119-58.185-37.362 0-67.652 28.903-68.958 65.801-.188 5.321-2.49 10.347-6.396 13.965s-9.095 5.532-14.413 5.311c-1.257-.051-2.356-.077-3.362-.077zm193.277-263.046v-29c0-11.046-8.954-20-20-20s-20 8.954-20 20v29c0 11.046 8.954 20 20 20s20-8.954 20-20zm-93.518 39.033c9.407-5.789 12.34-18.108 6.551-27.515l-16-26c-5.789-9.408-18.109-12.341-27.515-6.551-9.407 5.789-12.34 18.108-6.551 27.515l16 26c3.778 6.139 10.336 9.521 17.052 9.521 3.575 0 7.195-.959 10.463-2.97zm-54.637 52.748c5.955-9.304 3.239-21.672-6.064-27.626l-25-16c-9.305-5.956-21.673-3.239-27.626 6.064-5.955 9.304-3.239 21.672 6.064 27.626l25 16c3.339 2.137 7.072 3.157 10.762 3.157 6.593 0 13.047-3.256 16.864-9.221zm347.155 78.219c0-11.046-8.954-20-20-20h-29c-11.046 0-20 8.954-20 20s8.954 20 20 20h29c11.046 0 20-8.954 20-20zm-62.518-67.391 26-14c9.726-5.237 13.364-17.366 8.127-27.091-5.236-9.725-17.366-13.363-27.091-8.127l-26 14c-9.726 5.237-13.364 17.366-8.127 27.091 3.613 6.709 10.506 10.522 17.627 10.522 3.201 0 6.448-.771 9.464-2.395zm31.668 180.681c5.683-9.472 2.612-21.757-6.86-27.44l-25-15c-9.473-5.685-21.758-2.611-27.44 6.86-5.683 9.472-2.612 21.757 6.86 27.44l25 15c3.222 1.933 6.769 2.853 10.271 2.853 6.794 0 13.419-3.463 17.169-9.713zm-82.383-247.568 15.156-24.063c5.887-9.346 3.083-21.695-6.264-27.582-9.346-5.887-21.696-3.082-27.582 6.264l-15.156 24.063c-5.886 9.346-3.082 21.695 6.265 27.582 3.31 2.085 6.997 3.08 10.64 3.08 6.642-.001 13.14-3.308 16.941-9.344zm-4.409 174.281c-1.183 0-2.381-.105-3.587-.324-10.869-1.968-18.084-12.375-16.116-23.244.854-4.72 1.345-10.468 1.345-15.771 0-46.132-37.575-83.664-83.762-83.664-18.307 0-35.682 5.767-50.248 16.677-8.84 6.623-21.375 4.823-27.998-4.017-6.622-8.841-4.823-21.375 4.017-27.998 21.541-16.134 47.209-24.662 74.229-24.662 68.243 0 123.762 55.476 123.762 123.666 0 7.697-.705 15.83-1.985 22.898-1.75 9.664-10.172 16.439-19.657 16.439zm-94.358 144.997c0-35.318-28.71-64.051-64-64.051-11.046 0-20 8.954-20 20s8.954 20 20 20c13.234 0 24 10.79 24 24.051 0 11.046 8.954 20 20 20s20-8.954 20-20z"/></svg>