<svg id="Layer_1" enable-background="new 0 0 512 512" height="512" viewBox="0 0 512 512" width="512" xmlns="http://www.w3.org/2000/svg"><path d="m93 386c-51.28 0-93-41.495-93-92.5 0-28.843 13.276-55.51 35.5-72.856-1.662-7.559-2.5-15.297-2.5-23.144 0-57.677 45.653-104.89 102.724-107.395 7.084-22.836 20.529-43.434 38.889-59.214 23.176-19.92 52.79-30.891 83.387-30.891 33.388 0 64.988 12.782 88.979 35.99 19.342 18.711 32.083 42.582 36.878 68.591 71.747 6.514 128.143 67.004 128.143 140.419 0 63.379-42.652 119.311-103.723 136.015-10.654 2.917-21.653-3.36-24.568-14.015-2.914-10.654 3.36-21.654 14.015-24.568 43.733-11.962 74.276-52.027 74.276-97.432 0-55.691-45.309-101-101-101-1.28 0-2.671.032-4.255.097-5.313.229-10.507-1.692-14.413-5.31s-6.208-8.645-6.396-13.966c-1.684-47.563-40.31-84.821-87.936-84.821-43.431 0-79.963 31.062-86.865 73.858-1.713 10.625-11.537 17.983-22.208 16.663-2.789-.346-5.624-.521-8.427-.521-37.22 0-67.5 30.28-67.5 67.5 0 8.45 1.54 16.687 4.575 24.483 3.698 9.495-.335 20.252-9.363 24.978-17.401 9.106-28.212 26.939-28.212 46.539 0 28.949 23.776 52.5 53 52.5 11.046 0 20 8.954 20 20s-8.954 20-20 20zm182-58c0-13.807-11.193-25-25-25s-25 11.193-25 25 11.193 25 25 25 25-11.193 25-25zm-105 25c-13.807 0-25-11.193-25-25s11.193-25 25-25 25 11.193 25 25-11.193 25-25 25zm0-82c-13.807 0-25-11.193-25-25s11.193-25 25-25 25 11.193 25 25-11.193 25-25 25zm80 161c-13.807 0-25-11.193-25-25s11.193-25 25-25 25 11.193 25 25-11.193 25-25 25zm-80 0c-13.807 0-25-11.193-25-25s11.193-25 25-25 25 11.193 25 25-11.193 25-25 25zm0 80c-13.807 0-25-11.193-25-25s11.193-25 25-25 25 11.193 25 25-11.193 25-25 25zm80-241c-13.807 0-25-11.193-25-25s11.193-25 25-25 25 11.193 25 25-11.193 25-25 25zm80 82c-13.807 0-25-11.193-25-25s11.193-25 25-25 25 11.193 25 25-11.193 25-25 25zm0-82c-13.807 0-25-11.193-25-25s11.193-25 25-25 25 11.193 25 25-11.193 25-25 25z"/></svg>