<svg id="Layer_1" enable-background="new 0 0 512 512" height="512" viewBox="0 0 512 512" width="512" xmlns="http://www.w3.org/2000/svg"><path d="m431 512c-31.2 0-59.966-18.239-73.285-46.465-4.714-9.99-.437-21.909 9.553-26.622 9.991-4.715 21.909-.437 26.622 9.553 6.746 14.296 21.313 23.534 37.11 23.534 22.607 0 41-18.393 41-41 0-22.661-18.393-41.097-41-41.097l-327.994.097c-31.199 0-57.614-10.103-76.396-29.217-17.16-17.462-26.61-41.357-26.61-67.283 0-28.843 13.276-55.51 35.5-72.856-1.662-7.558-2.5-15.297-2.5-23.144 0-57.677 45.653-104.89 102.724-107.395 7.084-22.836 20.529-43.434 38.889-59.214 23.176-19.92 52.79-30.891 83.387-30.891 33.388 0 64.988 12.782 88.979 35.99 19.342 18.711 32.083 42.583 36.879 68.591 5.473.496 10.907 1.308 16.253 2.431 10.81 2.271 17.732 12.874 15.462 23.684-2.27 10.809-12.873 17.735-23.684 15.462-6.819-1.432-13.847-2.158-20.889-2.158-1.28 0-2.671.032-4.255.097-5.311.232-10.507-1.692-14.413-5.31s-6.208-8.645-6.396-13.966c-1.684-47.563-40.31-84.821-87.936-84.821-43.431 0-79.963 31.062-86.865 73.858-1.713 10.625-11.533 17.986-22.208 16.663-2.789-.346-5.624-.521-8.427-.521-37.22 0-67.5 30.28-67.5 67.5 0 8.451 1.539 16.688 4.575 24.482 3.698 9.496-.334 20.253-9.362 24.979-17.402 9.106-28.213 26.939-28.213 46.539 0 26.064 16.5 56.5 63 56.5l327.994-.097c44.669 0 81.006 36.38 81.006 81.097 0 44.664-36.336 81-81 81zm81-274.04c0-38.576-31.384-69.96-69.96-69.96-26.947 0-51.792 15.752-63.295 40.13-4.714 9.989-.437 21.909 9.552 26.623 9.99 4.714 21.909.437 26.623-9.552 4.93-10.45 15.575-17.201 27.12-17.201 16.52 0 29.96 13.44 29.96 29.96 0 16.564-13.44 30.04-29.951 30.04l-171.04-.079c-.003 0-.006 0-.01 0-11.041 0-19.995 8.948-20 19.991-.005 11.046 8.945 20.004 19.991 20.009l171.05.079c38.576 0 69.96-31.419 69.96-70.04z"/></svg>